<?xml version="1.0" encoding="UTF-8" standalone="no"?>
<!DOCTYPE svg PUBLIC "-//W3C//DTD SVG 1.1//EN" "http://www.w3.org/Graphics/SVG/1.1/DTD/svg11.dtd">
<svg version="1.1" xmlns="http://www.w3.org/2000/svg" xmlns:xlink="http://www.w3.org/1999/xlink" preserveAspectRatio="xMidYMid meet" viewBox="0 0 640 256" width="640" height="256"><defs><path d="M448 256L391.75 256L256 0L320 0L448 256Z" id="d4DvHI2v"></path><path d="M355 64L386.65 0L575.86 0L607.3 64L355 64Z" id="a11gsrkIqT"></path><path d="M192 0L128 0L64 256L128 256L192 0Z" id="lcjchpLhc"></path><path d="M169.6 192L352.17 192L320 256L153.6 256L169.6 192Z" id="ksPjIpPHv"></path><path d="M450.56 0L386.56 0L258.56 256L322.56 256L450.56 0Z" id="bikmZhyVG"></path><path d="M512 256L576 256L640 128L607.44 64L512 256Z" id="l3a11EFjN"></path><path d="M391.11 256L357.79 192L608 192L576 256L391.11 256Z" id="afmGZiX8I"></path><path d="M352 64L112 64L128 0L320 0L352 64Z" id="b2ZUp3ppFG"></path><path d="M512 0L576 0L640 128L608.64 192L512 0Z" id="b1qxdBZXtc"></path><path d="M128 256L64 256L0 0L64 0L128 256Z" id="a20nRUt6eo"></path><path d="M250 148L260 108L190 108L180 148L250 148Z" id="b2lZKF2yu9"></path><path d="M476 148L421 148L411 128L420.11 108L486 108L476 148Z" id="jjnVqmIEL"></path></defs><g><g><g><use xlink:href="#d4DvHI2v" opacity="1" fill="#c28c20" fill-opacity="1"></use><g><use xlink:href="#d4DvHI2v" opacity="1" fill-opacity="0" stroke="#000000" stroke-width="1" stroke-opacity="0"></use></g></g><g><use xlink:href="#a11gsrkIqT" opacity="1" fill="#c28c20" fill-opacity="1"></use><g><use xlink:href="#a11gsrkIqT" opacity="1" fill-opacity="0" stroke="#000000" stroke-width="1" stroke-opacity="0"></use></g></g><g><use xlink:href="#lcjchpLhc" opacity="1" fill="#c28c20" fill-opacity="1"></use><g><use xlink:href="#lcjchpLhc" opacity="1" fill-opacity="0" stroke="#000000" stroke-width="1" stroke-opacity="0"></use></g></g><g><use xlink:href="#ksPjIpPHv" opacity="1" fill="#c28c20" fill-opacity="1"></use><g><use xlink:href="#ksPjIpPHv" opacity="1" fill-opacity="0" stroke="#000000" stroke-width="1" stroke-opacity="0"></use></g></g><g><use xlink:href="#bikmZhyVG" opacity="1" fill="#ffd200" fill-opacity="1"></use><g><use xlink:href="#bikmZhyVG" opacity="1" fill-opacity="0" stroke="#000000" stroke-width="1" stroke-opacity="0"></use></g></g><g><use xlink:href="#l3a11EFjN" opacity="1" fill="#c28c20" fill-opacity="1"></use><g><use xlink:href="#l3a11EFjN" opacity="1" fill-opacity="0" stroke="#000000" stroke-width="1" stroke-opacity="0"></use></g></g><g><use xlink:href="#afmGZiX8I" opacity="1" fill="#ffd200" fill-opacity="1"></use><g><use xlink:href="#afmGZiX8I" opacity="1" fill-opacity="0" stroke="#000000" stroke-width="1" stroke-opacity="0"></use></g></g><g><use xlink:href="#b2ZUp3ppFG" opacity="1" fill="#ffd200" fill-opacity="1"></use><g><use xlink:href="#b2ZUp3ppFG" opacity="1" fill-opacity="0" stroke="#000000" stroke-width="1" stroke-opacity="0"></use></g></g><g><use xlink:href="#b1qxdBZXtc" opacity="1" fill="#ffd200" fill-opacity="1"></use><g><use xlink:href="#b1qxdBZXtc" opacity="1" fill-opacity="0" stroke="#000000" stroke-width="1" stroke-opacity="0"></use></g></g><g><use xlink:href="#a20nRUt6eo" opacity="1" fill="#ffd200" fill-opacity="1"></use><g><use xlink:href="#a20nRUt6eo" opacity="1" fill-opacity="0" stroke="#000000" stroke-width="1" stroke-opacity="0"></use></g></g><g><use xlink:href="#b2lZKF2yu9" opacity="1" fill="#c28c20" fill-opacity="1"></use><g><use xlink:href="#b2lZKF2yu9" opacity="1" fill-opacity="0" stroke="#000000" stroke-width="1" stroke-opacity="0"></use></g></g><g><use xlink:href="#jjnVqmIEL" opacity="1" fill="#c28c20" fill-opacity="1"></use><g><use xlink:href="#jjnVqmIEL" opacity="1" fill-opacity="0" stroke="#000000" stroke-width="1" stroke-opacity="0"></use></g></g></g></g></svg>